<?xml version="1.0" encoding="UTF-8" standalone="no"?>
<svg width="132px" height="37px" viewBox="0 0 132 37" version="1.1" xmlns="http://www.w3.org/2000/svg" xmlns:xlink="http://www.w3.org/1999/xlink">
    <!-- Generator: Sketch 3.8.3 (29802) - http://www.bohemiancoding.com/sketch -->
    <title>platform_outlet_logo</title>
    <desc>Created with Sketch.</desc>
    <defs></defs>
    <g id="Symbols" stroke="none" stroke-width="1" fill="none" fill-rule="evenodd">
        <g id="platform_outlet_logo">
            <g id="platform_outlet">
                <g id="Page-1">
                    <g>
                        <g id="platform_outlet">
                            <g id="Page-1">
                                <polygon id="Fill-1" fill="#EC1C24" points="53.8598693 18.0586491 45.4919676 27.7964266 54.9784737 36.4672789 131.842862 31.8765826 130.723228 13.4689947"></polygon>
                                <polygon id="Fill-2" fill="#000000" points="0.549722936 0.206195826 0.549722936 1.50130149 11.6749945 1.50130149 -0.000309006709 15.6068047 -0.000309006709 16.1235966 14.2273899 16.1235966 14.2273899 14.828491 2.48204489 14.828491 14.1501382 0.81988628 14.1460181 0.206195826"></polygon>
                                <path d="M27.7021424,0.0917930884 L20.2849514,16.1227631 L21.8753059,16.1227631 L24.3720801,10.7141601 L31.8881533,10.7141601 L34.3849275,16.1227631 L35.9752821,16.1227631 L28.558091,0.0917930884 L27.7021424,0.0917930884 L27.7021424,0.0917930884 Z M28.1182715,2.55072258 L31.2928005,9.41905447 L24.9674331,9.41905447 L28.1182715,2.55072258 L28.1182715,2.55072258 Z" id="Fill-3" fill="#000000"></path>
                                <polygon id="Fill-4" fill="#000000" points="43.3038911 0.206195826 43.3038911 16.1235966 52.6111732 16.1235966 52.6111732 14.828491 44.8190541 14.828491 44.8190541 0.206195826"></polygon>
                                <g id="Group-24" transform="translate(58.908513, 0.000000)">
                                    <g id="Group-7" fill="#000000">
                                        <g id="Fill-5-Clipped">
                                            <path d="M8.8881769,1.40940421 C12.7363404,1.40940421 15.750186,4.37574839 15.750186,8.1652088 C15.750186,11.9525854 12.7363404,14.9199714 8.8881769,14.9199714 C5.01426275,14.9199714 1.97981694,11.9525854 1.97981694,8.1652088 C1.97981694,4.37574839 5.01426275,1.40940421 8.8881769,1.40940421 M6.16685788,15.9233398 L12.5540265,15.5305362 C15.4174886,14.2291789 17.3580508,11.4576737 17.3580508,8.1652088 C17.3580508,3.58597358 13.6170095,-0.000312575784 8.84182586,-0.000312575784 C4.09239277,-0.000312575784 0.371951998,3.58597358 0.371951998,8.1652088 C0.371951998,11.8369323 2.768814,14.8657917 6.16685788,15.9233398" id="Fill-5"></path>
                                        </g>
                                    </g>
                                    <path d="M27.3452507,1.50067633 L29.7678633,1.50067633 C32.3583695,1.50067633 33.7849505,2.53217642 33.7849505,4.40554729 C33.7849505,6.29454694 32.3748498,7.33334046 29.8142143,7.33334046 L27.3452507,7.33334046 L27.3452507,1.50067633 L27.3452507,1.50067633 Z M27.3452507,14.6205239 L27.3452507,8.62844612 L29.3280438,8.62844612 C31.1862041,8.62844612 31.7578665,8.89934512 33.6005765,11.7708747 L35.1229495,14.142283 L36.8029159,14.0391329 L34.4668252,10.4913978 C33.7684701,9.45260427 33.2050479,8.65970369 32.565404,8.21584609 C34.4421047,7.45003542 35.3928154,6.16222319 35.3928154,4.38262506 C35.3928154,1.76740767 33.3853018,0.205570673 30.0212487,0.205570673 L25.8300878,0.205570673 L25.8300878,14.7132547 L27.3452507,14.6205239 L27.3452507,14.6205239 Z" id="Fill-8" fill="#000000"></path>
                                    <path d="M50.8789956,2.5506184 L54.0524945,9.4199922 L47.7271272,9.4199922 L50.8789956,2.5506184 L50.8789956,2.5506184 Z M45.8545466,13.4824355 L47.1328042,10.7140559 L54.6478474,10.7140559 L55.6479992,12.8802061 L57.1909726,12.7853915 L51.3177852,0.0916888965 L50.4618365,0.0916888965 L44.219901,13.5835016 L45.8545466,13.4824355 L45.8545466,13.4824355 Z" id="Fill-10" fill="#000000"></path>
                                    <path d="M3.23273607,26.6703203 C3.34500855,28.6947695 4.53777451,29.5095504 5.82942249,29.4397417 C7.1210706,29.3688912 8.2170144,28.4280381 8.10474192,26.404631 C7.99143939,24.3801817 6.79867357,23.564359 5.50702545,23.6352095 C4.21537748,23.70606 3.11943368,24.6469131 3.23273607,26.6703203 M9.72805717,26.3160678 C9.89286075,29.2782443 8.08929162,30.7838176 5.91079422,30.9025965 C3.73332701,31.0213753 1.77319449,29.7221019 1.60839091,26.7588835 C1.44461725,23.7967069 3.24818652,22.2911337 5.42565372,22.1723549 C7.60415098,22.053576 9.56428365,23.3528494 9.72805717,26.3160678" id="Fill-12" fill="#FFFAFC"></path>
                                    <path d="M21.1937511,26.7176235 C21.3204438,28.9973429 20.0504263,30.1309511 18.1675455,30.234101 C16.2856945,30.3362091 14.8982544,29.3484696 14.7715617,27.0677084 L14.4780053,21.7768423 L16.0766,21.6893211 L16.3722164,27.0051932 C16.441228,28.2492449 17.0036201,28.8295939 18.0861736,28.7702044 C19.1687272,28.7108151 19.6641678,28.0742024 19.5951564,26.8291089 L19.29954,21.5132366 L20.9001947,21.4257154 L21.1937511,26.7176235 L21.1937511,26.7176235 Z" id="Fill-14" fill="#FFFAFC"></path>
                                    <polygon id="Fill-16" fill="#FFFAFC" points="26.0074576 21.1476273 32.380206 20.7996262 32.4615778 22.2624808 30.0750159 22.3927207 30.4674545 29.4642269 28.8678297 29.55279 28.4753911 22.4802419 26.0888294 22.6104819"></polygon>
                                    <polygon id="Fill-18" fill="#FFFAFC" points="39.0511457 20.4359963 39.4435843 27.5075025 43.0970736 27.3084958 43.1784455 28.7713506 37.9253314 29.0578784 37.4515211 20.5235175"></polygon>
                                    <polygon id="Fill-20" fill="#FFFAFC" points="53.1648212 19.6658096 53.245163 21.1286643 49.517512 21.3318385 49.6174242 23.1249815 52.6075791 22.9614003 52.688951 24.4242549 49.6987959 24.5878363 49.8296089 26.94049 53.6798324 26.7310642 53.7612041 28.1939188 48.3113558 28.4908659 47.8375456 19.9565051"></polygon>
                                    <polygon id="Fill-22" fill="#FFFAFC" points="58.17485 19.3922015 64.5475983 19.0452425 64.6279401 20.5080971 62.2413783 20.6383371 62.6348469 27.7098432 61.0352221 27.7973644 60.6417535 20.7248163 58.2551918 20.8550563"></polygon>
                                </g>
                            </g>
                        </g>
                    </g>
                </g>
            </g>
        </g>
    </g>
</svg>