<?xml version="1.0" encoding="UTF-8" standalone="no"?>
<svg width="132px" height="37px" viewBox="0 0 132 37" version="1.1" xmlns="http://www.w3.org/2000/svg" xmlns:xlink="http://www.w3.org/1999/xlink">
    <!-- Generator: Sketch 3.8.3 (29802) - http://www.bohemiancoding.com/sketch -->
    <title>platform_magazine_logo</title>
    <desc>Created with Sketch.</desc>
    <defs></defs>
    <g id="Symbols" stroke="none" stroke-width="1" fill="none" fill-rule="evenodd">
        <g id="platform_magazine_logo" fill="#000000">
            <g id="Group-2">
                <g id="Group-3" transform="translate(8.093750, 25.437500)">
                    <polygon id="Fill-126" points="0.855212062 10.3098553 2.33712794 10.3098553 2.33712794 0.953929071 0.855212062 0.953929071 0.855212062 0.762919613 3.86049602 0.762919613 6.33150727 8.1215 6.35799062 8.1215 8.82900187 0.762919613 11.7813191 0.762919613 11.7813191 0.953929071 10.2982518 0.953929071 10.2982518 10.3098553 11.7813191 10.3098553 11.7813191 10.5008647 7.48065417 10.5008647 7.48065417 10.3098553 8.96257005 10.3098553 8.96257005 1.03646402 8.93608671 1.03646402 5.74311643 10.5150136 2.56396355 1.13196875 2.53748021 1.13196875 2.53748021 10.3098553 4.01939609 10.3098553 4.01939609 10.5008647 0.855212062 10.5008647"></polygon>
                    <path d="M22.4005649,2.33509252 L20.9313149,6.31563528 L23.8698148,6.31563528 L22.4005649,2.33509252 Z M18.0584477,10.3103269 L19.2340779,10.3103269 L22.8404187,0.516965461 L23.1616732,0.516965461 L26.7944973,10.3103269 L27.9839449,10.3103269 L27.9839449,10.5013363 L23.8698148,10.5013363 L23.8698148,10.3103269 L25.3517307,10.3103269 L23.9492648,6.50664474 L20.8507134,6.50664474 L19.4470961,10.3103269 L20.9313149,10.3103269 L20.9313149,10.5013363 L18.0584477,10.5013363 L18.0584477,10.3103269 Z" id="Fill-127"></path>
                    <path d="M43.8526502,7.01305561 L42.7841048,7.01305561 L42.7841048,10.1187279 L42.6240533,10.1187279 C42.52618,10.0185069 42.4455786,9.95012079 42.3834003,9.91239052 C42.321222,9.8770184 42.2221973,9.85815327 42.0897806,9.85815327 C41.9285776,9.85815327 41.7673746,9.90177889 41.6015659,9.98903012 C41.4369085,10.0751023 41.2446164,10.1729652 41.0281439,10.2826187 C40.8093684,10.3910932 40.5525951,10.4901352 40.2589754,10.5762073 C39.9665072,10.6634586 39.6095577,10.7059051 39.19043,10.7059051 C38.5582841,10.7059051 37.997528,10.5997888 37.5081619,10.3851979 C37.0187957,10.170607 36.5467013,9.83103464 36.0918786,9.36648078 C35.6462675,8.91018041 35.2766522,8.37252416 34.9841839,7.75233296 C34.6894128,7.13214176 34.5420272,6.43413189 34.5420272,5.65948242 C34.5420272,5.13951223 34.6007511,4.67260023 34.7158961,4.25756733 C34.8310411,3.84253444 34.9726694,3.48055972 35.1373267,3.17046412 C35.3008326,2.86036852 35.4700957,2.59979389 35.6451161,2.38991931 C35.818985,2.18122379 35.9629162,2.01733296 36.0780612,1.89824681 C36.4799172,1.4879302 36.9381942,1.15425319 37.4540437,0.89957391 C37.9710447,0.643715563 38.5582841,0.516375925 39.2169133,0.516375925 C39.5554396,0.516375925 39.8340904,0.543494552 40.0517144,0.598910876 C40.2704899,0.653148129 40.4593277,0.714459807 40.6205306,0.782845909 C40.7817336,0.851232011 40.9245134,0.912543688 41.0546272,0.967960012 C41.1835896,1.02219727 41.3286723,1.05049496 41.4887238,1.05049496 C41.6671985,1.05049496 41.793858,1.02455541 41.8687022,0.975034437 C41.9446979,0.924334396 42.0183907,0.853590152 42.0897806,0.762801706 L42.2901328,0.762801706 L42.2901328,3.49824579 L42.1438987,3.49824579 C42.1070523,3.26125257 42.0379653,2.98299188 41.9366378,2.66346371 C41.8330073,2.34511462 41.6741072,2.0397353 41.4553317,1.74732576 C41.2365563,1.45609529 40.9475424,1.20966951 40.5871386,1.00922749 C40.2255834,0.807606394 39.7661549,0.707385382 39.2042474,0.707385382 C38.5364065,0.707385382 37.9998309,0.851232011 37.5945206,1.13892527 C37.1892103,1.42661852 36.873713,1.80392116 36.6468774,2.2731913 C36.4188904,2.74364052 36.266899,3.27422235 36.1920547,3.86729492 C36.1160591,4.4603675 36.0780612,5.05697728 36.0780612,5.65948242 C36.0780612,6.06979903 36.0964844,6.48011565 36.1321794,6.89043226 C36.1667228,7.30074887 36.2277497,7.68866314 36.3118055,8.05299599 C36.3970128,8.41732884 36.5156121,8.75572214 36.6664521,9.06463867 C36.817292,9.37473427 37.0130384,9.64002519 37.2548429,9.85815327 C37.5208278,10.1045791 37.7971758,10.2755443 38.0815839,10.371049 C38.3671434,10.4677328 38.7367588,10.5148957 39.19043,10.5148957 C39.466778,10.5148957 39.7431259,10.4677328 40.0194739,10.371049 C40.2946704,10.2755443 40.5433835,10.1316977 40.7598561,9.94068822 C40.9786315,9.74849969 41.1559548,9.50443205 41.2941288,9.2084853 C41.4323027,8.91253855 41.5013897,8.56353361 41.5013897,8.16264957 L41.5013897,7.01305561 L39.7788208,7.01305561 L39.7788208,6.82204616 L43.8526502,6.82204616 L43.8526502,7.01305561 Z" id="Fill-128"></path>
                    <path d="M54.4180081,2.33509252 L52.9487581,6.31563528 L55.887258,6.31563528 L54.4180081,2.33509252 Z M50.0770424,10.3103269 L51.2526726,10.3103269 L54.8590133,0.516965461 L55.1791164,0.516965461 L58.8119405,10.3103269 L60.0013881,10.3103269 L60.0013881,10.5013363 L55.887258,10.5013363 L55.887258,10.3103269 L57.3691739,10.3103269 L55.9678595,6.50664474 L52.8681567,6.50664474 L51.4668423,10.3103269 L52.9487581,10.3103269 L52.9487581,10.5013363 L50.0770424,10.5013363 L50.0770424,10.3103269 Z" id="Fill-129"></path>
                    <path d="M67.3341658,0.762565892 L73.7051375,0.762565892 L68.110243,10.3095015 L71.0487429,10.3095015 C71.4932025,10.3095015 71.8351831,10.2434736 72.0769875,10.1114177 C72.3164891,9.97936174 72.5306587,9.82136626 72.7183451,9.63978937 C72.9129401,9.45703341 73.1132923,9.17877272 73.3194018,8.8050073 C73.5232085,8.43124188 73.6740484,7.99852292 73.7730731,7.50567136 L73.9193072,7.50567136 L73.9193072,10.500511 L66.5327568,10.500511 L72.1034709,0.95357535 L70.0331641,0.95357535 C69.3112051,0.95357535 68.7504491,1.14812202 68.3497445,1.53485722 C67.94904,1.92277148 67.6600261,2.45806959 67.4827029,3.14193061 L67.3341658,3.14193061 L67.3341658,0.762565892 Z" id="Fill-130"></path>
                    <polygon id="Fill-131" points="80.9723977 10.3098553 82.4554651 10.3098553 82.4554651 0.953929071 80.9723977 0.953929071 80.9723977 0.762919613 85.2730627 0.762919613 85.2730627 0.953929071 83.7911468 0.953929071 83.7911468 10.3098553 85.2730627 10.3098553 85.2730627 10.5008647 80.9723977 10.5008647"></polygon>
                    <polygon id="Fill-132" points="91.9394964 10.3098553 93.4214123 10.3098553 93.4214123 0.953929071 91.9394964 0.953929071 91.9394964 0.762919613 94.7985463 0.762919613 99.3122295 8.21700473 99.3387128 8.21700473 99.3387128 0.953929071 97.8567969 0.953929071 97.8567969 0.762919613 101.023284 0.762919613 101.023284 0.953929071 99.5390651 0.953929071 99.5390651 10.6930532 99.2730802 10.6930532 93.6493994 1.51516674 93.6217646 1.51516674 93.6217646 10.3098553 95.1059834 10.3098553 95.1059834 10.5008647 91.9394964 10.5008647"></polygon>
                    <path d="M107.646538,10.3098553 L109.129606,10.3098553 L109.129606,0.953929071 L107.646538,0.953929071 L107.646538,0.762919613 L115.287559,0.762919613 L115.287559,3.12813549 L115.140173,3.12813549 C115.025028,2.7732352 114.900672,2.46078146 114.767104,2.19195333 C114.632384,1.92312521 114.473484,1.69438549 114.285798,1.50809231 C114.098111,1.32179914 113.875882,1.18266879 113.617957,1.09070127 C113.358881,0.999912829 113.047989,0.953929071 112.68298,0.953929071 L110.465287,0.953929071 L110.465287,5.18089762 L111.334632,5.18089762 C111.6271,5.18089762 111.876965,5.15259992 112.081923,5.09836266 C112.285729,5.04294634 112.463053,4.94154626 112.609287,4.79062521 C112.755521,4.63970415 112.881029,4.43454585 112.982357,4.17515029 C113.085987,3.91457566 113.186163,3.57971957 113.284036,3.16940296 L113.431422,3.16940296 L113.431422,7.42349013 L113.284036,7.42349013 C113.220707,7.15937829 113.157377,6.90351994 113.090593,6.65827323 C113.023809,6.41184745 112.930541,6.1925403 112.809639,6.00035177 C112.689888,5.80934231 112.528685,5.65724219 112.328333,5.54287233 C112.127981,5.42850247 111.868905,5.37190707 111.54765,5.37190707 L110.465287,5.37190707 L110.465287,10.3098553 L112.990417,10.3098553 C113.479783,10.3098553 113.886245,10.2025598 114.212105,9.98914803 C114.536814,9.77455715 114.801647,9.51869881 115.006605,9.22275206 C115.212715,8.92562623 115.363555,8.61788877 115.461428,8.29953968 C115.559301,7.98001151 115.621479,7.71589967 115.647963,7.50484601 L115.795348,7.50484601 L115.795348,10.5008647 L107.646538,10.5008647 L107.646538,10.3098553 Z" id="Fill-133"></path>
                </g>
                <g id="Group-4">
                    <polygon id="Fill-134" points="15.840871 0.933729687 15.8371316 0.235719819 0.61605984 0.235719819 0.61605984 1.71097311 13.0690691 1.71097311 0 17.7887815 0 18.3773736 15.928746 18.3773736 15.928746 16.9011771 2.7774109 16.9011771"></polygon>
                    <path d="M35.0333319,10.7365237 L27.9509809,10.7365237 L31.4790686,2.90749408 L35.0333319,10.7365237 Z M31.0135181,0.104135526 L22.7093306,18.376902 L24.4892668,18.376902 L27.2853745,12.2127202 L35.6989383,12.2127202 L38.495046,18.376902 L40.2749822,18.376902 L31.9717295,0.104135526 L31.0135181,0.104135526 Z" id="Fill-135"></path>
                    <polygon id="Fill-136" points="50.1749423 0.235436842 48.4791418 0.235436842 48.4791418 18.3770906 58.9007428 18.3770906 58.9007428 16.9018373 50.1749423 16.9018373"></polygon>
                    <path d="M75.9002551,17.0059729 C71.5635303,17.0059729 68.1663202,13.624398 68.1663202,9.30616941 C68.1663202,4.98888405 71.5635303,1.60636595 75.9002551,1.60636595 C80.2089346,1.60636595 83.5837085,4.98888405 83.5837085,9.30616941 C83.5837085,13.624398 80.2089346,17.0059729 75.9002551,17.0059729 M75.8488388,0 C70.5314665,0 66.3667524,4.08807401 66.3667524,9.30616941 C66.3667524,14.5242648 70.5314665,18.6123388 75.8488388,18.6123388 C81.1942564,18.6123388 85.3823415,14.5242648 85.3823415,9.30616941 C85.3823415,4.08807401 81.1942564,0 75.8488388,0" id="Fill-137"></path>
                    <path d="M96.5638743,1.71069013 L99.2758464,1.71069013 C102.176656,1.71069013 103.773364,2.88693109 103.773364,5.02246398 C103.773364,7.17403224 102.194418,8.35970576 99.3281975,8.35970576 L96.5638743,8.35970576 L96.5638743,1.71069013 Z M102.407562,9.36521727 C104.508148,8.49270493 105.572932,7.02405444 105.572932,4.99510954 C105.572932,2.01536201 103.325575,0.235436842 99.5600379,0.235436842 L94.8680738,0.235436842 L94.8680738,18.3770906 L96.5638743,18.3770906 L96.5638743,9.83495905 L98.7841203,9.83495905 C100.86414,9.83495905 101.504506,10.1434039 103.565829,13.4174475 L106.695675,18.3770906 L108.68782,18.3770906 L104.537128,11.9591729 C103.755602,10.7753859 103.124584,9.86985954 102.407562,9.36521727 L102.407562,9.36521727 Z" id="Fill-138"></path>
                    <path d="M126.463624,10.7365237 L119.382207,10.7365237 L122.91123,2.90749408 L126.463624,10.7365237 Z M123.402021,0.104135526 L122.44381,0.104135526 L114.140557,18.376902 L115.921428,18.376902 L118.717536,12.2127202 L127.130165,12.2127202 L129.926272,18.376902 L131.706209,18.376902 L123.402021,0.104135526 Z" id="Fill-139"></path>
                </g>
            </g>
        </g>
    </g>
</svg>